inDegrees=no
num_controls=7
num_derivatives=13
num_iterations=176
num_multipliers=7
num_parameters=0
num_slacks=7
num_states=26
objective=4.368830
objective_accelerations=0.240690
objective_balance=0.014362
objective_effort=0.340918
objective_height=3.699323
objective_ligament=0.073537
solver_duration=1637.728127
status=Solve_Succeeded
success=true
DataType=double
version=3
OpenSimVersion=4.4-2022-07-23-0e9fedc
endheader
time	/jointset/ground_pelvis/pelvis_tilt/value	/jointset/ground_pelvis/pelvis_tx/value	/jointset/ground_pelvis/pelvis_ty/value	/jointset/hip_l/hip_flexion_l/value	/jointset/hip_l/hip_adduction_l/value	/jointset/hip_l/hip_rotation_l/value	/jointset/back/lumbar_extension/value	/jointset/patellofemoral_l/patellar_flexion_l/value	/jointset/knee_l/knee_flexion_l/value	/jointset/knee_l/knee_adduction_l/value	/jointset/knee_l/knee_rotation_l/value	/jointset/ankle_l/ankle_angle_l/value	/jointset/subtalar_l/subtalar_angle_l/value	/jointset/ground_pelvis/pelvis_tilt/speed	/jointset/ground_pelvis/pelvis_tx/speed	/jointset/ground_pelvis/pelvis_ty/speed	/jointset/hip_l/hip_flexion_l/speed	/jointset/hip_l/hip_adduction_l/speed	/jointset/hip_l/hip_rotation_l/speed	/jointset/back/lumbar_extension/speed	/jointset/patellofemoral_l/patellar_flexion_l/speed	/jointset/knee_l/knee_flexion_l/speed	/jointset/knee_l/knee_adduction_l/speed	/jointset/knee_l/knee_rotation_l/speed	/jointset/ankle_l/ankle_angle_l/speed	/jointset/subtalar_l/subtalar_angle_l/speed	/forceset/tau_hip_flexion_l	/forceset/tau_hip_adduction_l	/forceset/tau_hip_rotation_l	/forceset/tau_knee_flexion_l	/forceset/tau_ankle_angle_l	/forceset/tau_subtalar_angle_l	/forceset/tau_lumbar_extension	lambda_cid13_p0	lambda_cid13_p1	lambda_cid13_p2	lambda_cid13_p3	lambda_cid13_p4	lambda_cid13_p5	lambda_cid14_p0	/jointset/ground_pelvis/pelvis_tilt/accel	/jointset/ground_pelvis/pelvis_tx/accel	/jointset/ground_pelvis/pelvis_ty/accel	/jointset/hip_l/hip_flexion_l/accel	/jointset/hip_l/hip_adduction_l/accel	/jointset/hip_l/hip_rotation_l/accel	/jointset/back/lumbar_extension/accel	/jointset/patellofemoral_l/patellar_flexion_l/accel	/jointset/knee_l/knee_flexion_l/accel	/jointset/knee_l/knee_adduction_l/accel	/jointset/knee_l/knee_rotation_l/accel	/jointset/ankle_l/ankle_angle_l/accel	/jointset/subtalar_l/subtalar_angle_l/accel	gamma_cid13_p0	gamma_cid13_p1	gamma_cid13_p2	gamma_cid13_p3	gamma_cid13_p4	gamma_cid13_p5	gamma_cid14_p0
0	-0.03682271444372422	0.05667758227853428	0.9203415899931701	0.3085811930696054	-0.2956404732067515	-0.3016072030886905	-0.3879500408040475	0.2499276582270976	0.249927658227084	-0.1745329251994329	-0.1745328998733243	-0.0008036543073733089	0.0004376058541864052	0	0	0	0	0	0	0	0	0	0	0	0	0	0.03891810136629603	-0.04349089703055901	-0.01806617462659224	-0.2300363823449847	0.1950509895754419	-0.00447180578884415	0.03817251169370983	18.85011084762924	-3.876241511467236	3.039637744258068	-5.397292764072471	-643.5294949878606	-79.49573758746908	-23.19701888741472	0.4911782863954248	-1.192046514503781	-0.5519414794143569	5.329713890775402	-0.6210844194359667	2.577742546164029	-6.27012465388941	7.371804490854839	7.371804490855482	1.088999555288688	-0.0496293175230931	2.015772810517176	0.02183200271786357	-2.641975496465724e-09	9.094112681326693e-08	3.769363731694653e-08	-1.129769189099168e-09	5.442795518412929e-08	-7.977179776659657e-09	3.373644451598008e-09
0.01	-0.03679626303844771	0.05661912622532462	0.9203146962188777	0.3088397057891573	-0.2956715777116375	-0.3014778747254512	-0.3882613569006217	0.2502888190552146	0.2502888190552195	-0.1744812399528783	-0.1745327057829201	-0.0007046744107701871	0.0004380141324823165	0.005280962290642403	-0.01158913763259854	-0.005353258292297625	0.05138838958769594	-0.006191515914638381	0.0257381120627115	-0.0618328717749974	0.07190289029983253	0.071902890299833	0.01028446745797901	3.395507487829547e-05	0.01977070811769868	0.0001045932426448554	0.03488453845979541	-0.05060836739091949	-0.01755484789110774	-0.2271673393373592	0.1897284321858279	0.00482085836049197	0.04220311442201367	17.39180094659003	-7.600231896730892	3.568836620291162	-5.784281946787117	-645.8176470384574	-87.01215239064263	-23.20115314493144	0.545152882415788	-1.127036662043547	-0.523182633640818	4.996274780346621	-0.6137989652958813	2.552710682025994	-6.075316308473947	7.050139326503063	7.050139326502753	0.9901065641406896	0.02918156906174278	1.953931178756737	0.008194809903980711	-2.021720401512561e-08	8.523269171832859e-08	8.382214963244028e-08	1.597385288608232e-08	-1.407538178428843e-08	-4.238283972530498e-08	-1.828757430375137e-09
0.02	-0.03671728247385687	0.05644784094090795	0.9202350369357617	0.3096026770620953	-0.2957637201332342	-0.3010949922124428	-0.3891780912887807	0.2513591303917201	0.2513591303917356	-0.1743283162320575	-0.1745323174114469	-0.0004087451597178514	0.0004401527081779321	0.01050583186195457	-0.02256584624140159	-0.01055310176475743	0.1008917106785864	-0.01220758334200286	0.05071082995346892	-0.1210836583167682	0.1418301016778895	0.1418301016778883	0.02024638383948404	3.885611248847322e-05	0.03938987088981866	0.0003460594799362173	0.03085097555322367	-0.05772583775127612	-0.01704352115563877	-0.2242982963297676	0.1844058747962057	0.01411352250982951	0.04623371715026878	15.98973118702993	-11.33343944949865	4.098785234304151	-6.30533562474527	-647.2984199140016	-94.45570806821925	-23.21333542521223	0.4799597425293016	-1.069560709744631	-0.5212585154467994	4.952700191414313	-0.5859947219812526	2.42466371177276	-5.753707607244146	6.976668706499798	6.976668706500021	1.024489339993825	-0.05544012497720457	1.985463741401486	0.04920660164711869	-3.77924325337855e-08	7.952425662339025e-08	1.29950661947934e-07	3.307747496126382e-08	-8.257871875270615e-08	-7.678849967395031e-08	-7.031159312348283e-09
0.03	-0.03658643458538797	0.05616960520779509	0.9201039835500637	0.3108518584042596	-0.2959150870314183	-0.3004663959001231	-0.3906748104054987	0.2531190627796888	0.253119062779695	-0.1740773650839922	-0.1745322236982535	8.233448556001402e-05	0.0004453491630419891	0.01565778036342746	-0.03300345116952943	-0.01564560942139836	0.1486678367083721	-0.01803427377103286	0.07489601895205149	-0.1778831756552067	0.209835747386811	0.2098357473868122	0.02987822093646502	-1.017413576075724e-05	0.05876919977098365	0.0007066901036431176	0.02633810852748415	-0.05227594805286069	-0.01651522766252874	-0.2206615988711028	0.1812585528872342	0.01184873525512889	0.05040876437430388	14.82939888000085	-10.20847004552752	3.990017365816203	-6.071115028336066	-648.7422597680807	-91.53323652287143	-23.23312222175158	0.5319144057655386	-1.019176317880294	-0.5014687902835673	4.648555385610396	-0.5763091792035936	2.39856867658478	-5.586525391567789	6.66441965094979	6.664419650949969	0.9227147513342987	0.02187602820242573	1.905638766062075	0.03148267514500082	-5.23452703622896e-08	6.559710177842697e-08	1.739397215111633e-07	4.492489757772101e-08	-1.365297585881229e-07	-1.113440037623717e-07	-1.293111822112151e-08
0.04	-0.03640424681153758	0.05578933023869431	0.9199223607078971	0.3125704983220965	-0.2961237814290619	-0.2995993232612822	-0.3927282150144846	0.2555494330543195	0.2555494330543199	-0.1737320587936046	-0.1745323181869275	0.00076550168056738	0.0004545502006256479	0.02077380893724811	-0.04297369343898361	-0.02066699305847375	0.1947834258121388	-0.02367308323365534	0.09840609525798662	-0.2324207567706195	0.2759176790101912	0.2759176790101937	0.03911741230480898	1.21573403861122e-06	0.07780738083567225	0.001146976023851058	0.02182524150176938	-0.04682605835443483	-0.01598693416941897	-0.2170249014124171	0.1781112309782741	0.009583948000442892	0.05458381159834716	13.7219143244854	-9.090399820027331	3.879660471938867	-5.968729506764145	-649.4351479999474	-88.539206290504	-23.25994487070891	0.4727757569987858	-0.9760881780098547	-0.507033711533695	4.62059280621054	-0.5484185286997556	2.289641173243273	-5.301320362639039	6.591925889391544	6.591925889391517	0.9459601942664041	-0.04335610136748245	1.917234178106254	0.06513766094733367	-6.683579085697606e-08	5.150048879428791e-08	2.178846686465108e-07	5.666394494760657e-08	-1.901807510599727e-07	-1.459025974206855e-07	-1.884545974900401e-08
0.05	-0.03617125680983214	0.05531173508007967	0.919690773782487	0.3147422587598638	-0.2963878587266861	-0.298500916954567	-0.3953155741694733	0.2586311874703809	0.2586311874703823	-0.1732962473116191	-0.1745323760580387	0.001637424474387518	0.0004686477230152238	0.0258153572266199	-0.05246247579371145	-0.02564576619490066	0.2392915495284409	-0.02910385918804467	0.1211507497729459	-0.2846793468108292	0.3401111572622542	0.3401111572622552	0.04798051851136242	-8.52157051354783e-06	0.09652342763336239	0.001694039421836318	0.01734517986693195	-0.04588667641855845	-0.01543997341097859	-0.2141431218392789	0.1742092932049366	0.0114844079338284	0.05880550368173885	12.50948358547148	-9.71882236348106	3.997370907652554	-5.942451377452175	-650.4383676778272	-89.27917513979916	-23.29309293561175	0.5185168276184628	-0.9228324629215976	-0.4926437100933113	4.324348521408986	-0.5346683236938792	2.248184358520556	-5.132369212410299	6.284755568967343	6.284755568967092	0.8468627679801839	0.02089360234337815	1.840725724131975	0.05268436916301308	-7.746716203353736e-08	2.511118423271645e-08	2.490904847777411e-07	6.440220075769478e-08	-2.32921594332884e-07	-1.737709643798522e-07	-2.456513359859567e-08
